<?xml version="1.0" encoding="iso-8859-1"?>
<!-- Uploaded to: SVG Repo, www.svgrepo.com, Generator: SVG Repo Mixer Tools -->
<svg xmlns="http://www.w3.org/2000/svg" xmlns:xlink="http://www.w3.org/1999/xlink" viewBox="0 0 511.879 511.879" width="35" height="35">
  <g>
    <path style="fill:#FFFFFF;" d="M217.312,370.637v101.517c0,21.937-17.788,39.724-39.724,39.724s-39.724-17.788-39.724-39.724V114.637L56.218,186c-12.818,11.917-33.033,10.478-44.041-3.116c-9.719-12.014-8.81-29.431,2.119-40.36L133.203,28.877c3.098-3.098,6.488-5.906,10.108-8.377c7.194-4.908,15.201-8.589,23.711-10.461C228.718-3.52,276.316-3.29,338.506,10.401c8.183,1.801,15.934,5.226,22.908,9.878l0,0c3.972,2.622,7.662,5.632,11.017,8.995L497.58,142.524c10.929,10.929,11.847,28.345,2.119,40.36c-11.008,13.594-31.223,15.033-44.041,3.116l-88.276-71.362v357.517c0,21.937-17.788,39.724-39.724,39.724s-39.724-17.788-39.724-39.724V370.637c0-19.5-15.81-35.31-35.31-35.31S217.312,351.137,217.312,370.637"/>
    <polygon style="fill:#FFFFFF;" points="287.933,185.261 332.071,185.261 332.071,132.295 287.933,132.295"/>
    <g>
      <path style="fill:#FFFFFF;" d="M252.623,79.327c-4.882,0-8.828-3.955-8.828-8.828V52.844c0-4.873,3.946-8.828,8.828-8.828s8.828,3.955,8.828,8.828v17.655C261.45,75.372,257.504,79.327,252.623,79.327 M252.623,123.465c-4.882,0-8.828-3.955-8.828-8.828V96.982c0-4.873,3.946-8.828,8.828-8.828s8.828,3.955,8.828,8.828v17.655C261.45,119.51,257.504,123.465,252.623,123.465 M252.623,167.603c-4.882,0-8.828-3.955-8.828-8.828V141.12c0-4.873,3.946-8.828,8.828-8.828s8.828,3.955,8.828,8.828v17.655C261.45,163.648,257.504,167.603,252.623,167.603 M252.623,211.741c-4.882,0-8.828-3.955-8.828-8.828v-17.655c0-4.873,3.946-8.828,8.828-8.828s8.828,3.955,8.828,8.828v17.655C261.45,207.786,257.504,211.741,252.623,211.741 M252.623,255.879c-4.882,0-8.828-3.955-8.828-8.828v-17.655c0-4.873,3.946-8.828,8.828-8.828s8.828,3.955,8.828,8.828v17.655C261.45,251.924,257.504,255.879,252.623,255.879 M252.623,300.017c-4.882,0-8.828-3.955-8.828-8.828v-17.655c0-4.873,3.946-8.828,8.828-8.828s8.828,3.955,8.828,8.828v17.655C261.45,296.062,257.504,300.017,252.623,300.017 M252.623,335.327c-4.882,0-8.828-3.955-8.828-8.828v-8.828c0-4.873,3.946-8.828,8.828-8.828s8.828,3.955,8.828,8.828v8.828C261.45,331.372,257.504,335.327,252.623,335.327"/>
      <path style="fill:#FFFFFF;" d="M209.056,2.751c-0.291,1.951-0.574,3.919-0.574,5.959c0,24.373,19.765,44.138,44.138,44.138c24.382,0,44.138-19.765,44.138-44.138c0-1.969-0.256-3.858-0.538-5.747C266.427-0.842,238.708-0.921,209.056,2.751"/>
    </g>
  </g>
</svg>
