<?xml version="1.0" standalone="no"?>
<!DOCTYPE svg PUBLIC "-//W3C//DTD SVG 20010904//EN"
 "http://www.w3.org/TR/2001/REC-SVG-20010904/DTD/svg10.dtd">
<svg version="1.0" xmlns="http://www.w3.org/2000/svg"
 width="512.000000pt" height="512.000000pt" viewBox="0 0 512.000000 512.000000"
 preserveAspectRatio="xMidYMid meet">

<g transform="translate(0.000000,512.000000) scale(0.100000,-0.100000)"
fill="#FFFFFF" stroke="none">
<path d="M2410 5109 c-458 -44 -888 -249 -1005 -479 -49 -98 -66 -227 -90
-690 -39 -764 -89 -995 -370 -1715 -64 -165 -153 -392 -197 -505 -333 -853
-356 -1157 -110 -1409 165 -169 437 -272 794 -301 90 -8 487 -10 1228 -7 1075
4 1097 4 1210 26 292 55 490 148 625 293 111 118 155 234 156 403 0 227 -85
520 -338 1160 -431 1092 -458 1206 -508 2145 -27 508 -50 598 -181 726 -182
178 -547 318 -920 354 -121 11 -170 11 -294 -1z m380 -90 c90 -12 252 -48 263
-59 4 -4 -2 -32 -13 -63 -24 -63 -15 -60 -110 -36 -223 55 -529 52 -764 -7
-32 -8 -59 -14 -61 -12 -11 14 -35 112 -29 118 21 19 267 64 399 74 68 4 224
-3 315 -15z m-766 -186 c114 -292 310 -495 501 -518 63 -8 160 14 225 52 143
83 303 304 366 506 18 57 19 59 48 53 49 -10 253 -112 320 -160 73 -52 137
-120 164 -173 42 -84 56 -190 77 -588 25 -465 44 -665 86 -885 58 -301 117
-481 389 -1169 239 -606 314 -828 356 -1056 22 -122 16 -278 -15 -357 -78
-200 -308 -352 -631 -418 -182 -37 -355 -42 -1460 -37 -919 4 -1067 6 -1150
21 -160 27 -280 65 -400 123 -197 97 -310 233 -341 407 -36 209 45 501 366
1316 398 1012 425 1132 480 2133 22 386 41 483 115 577 37 47 129 117 216 166
64 36 220 103 239 104 6 0 28 -44 49 -97z"/>
<path d="M2536 4094 c-14 -14 -16 -162 -16 -1485 0 -995 3 -1477 10 -1490 12
-21 40 -25 58 -7 17 17 17 2969 0 2986 -16 16 -33 15 -52 -4z"/>
<path d="M3082 3678 c-7 -7 -12 -19 -12 -27 0 -9 72 -164 159 -346 152 -315
160 -330 186 -330 61 0 56 14 -110 361 -87 181 -162 335 -168 342 -12 15 -39
16 -55 0z"/>
<path d="M3005 2984 c-9 -9 -13 -24 -10 -33 18 -46 380 -654 393 -658 19 -8
46 9 50 31 3 16 -341 619 -376 659 -19 21 -36 22 -57 1z"/>
<path d="M1344 1826 c-4 -19 52 -107 311 -482 174 -253 325 -467 335 -478 35
-36 82 3 57 49 -6 12 -154 228 -327 479 -285 413 -318 456 -342 456 -21 0 -29
-6 -34 -24z"/>
<path d="M1050 1366 c-6 -8 -10 -23 -8 -34 4 -26 649 -850 671 -857 24 -9 49
13 45 41 -4 33 -657 864 -678 864 -10 0 -23 -7 -30 -14z"/>
<path d="M2495 882 c-91 -44 -129 -136 -91 -225 17 -41 76 -93 114 -102 24 -5
53 -35 137 -146 71 -93 112 -139 125 -139 25 0 260 262 260 290 0 22 -32 44
-205 144 -84 48 -103 64 -119 97 -37 81 -141 118 -221 81z m378 -295 c31 -17
57 -36 57 -42 0 -5 -33 -46 -74 -89 l-73 -80 -72 94 -72 94 31 24 c17 13 37
37 46 53 l15 30 42 -26 c23 -14 68 -40 100 -58z"/>
</g>
</svg>
